# Blender v3.4.1 OBJ File: ''
# www.blender.org
mtllib tri.mtl
o Plane
v -0.671875 0.000000 0.671875
v 0.671875 0.000000 0.671875
v -0.671875 0.000000 -0.671875
v 0.671875 0.000000 -0.671875
v -0.916667 0.000000 0.000000
v 0.000000 0.000000 0.916667
v 0.916667 0.000000 0.000000
v 0.000000 0.000000 -0.916667
v 0.000000 0.000000 -0.000000
vt 0.000000 0.000000
vt 0.500000 0.500000
vt 0.000000 0.500000
vt 1.000000 0.000000
vt 0.500000 0.000000
vt 1.000000 1.000000
vt 0.500000 1.000000
vt 0.000000 1.000000
vt 1.000000 0.500000
vn 0.0000 1.0000 0.0000
usemtl None
s off
f 1/1/1 9/2/1 5/3/1
f 2/4/1 9/2/1 6/5/1
f 9/2/1 4/6/1 8/7/1
f 9/2/1 3/8/1 5/3/1
f 1/1/1 6/5/1 9/2/1
f 2/4/1 7/9/1 9/2/1
f 9/2/1 7/9/1 4/6/1
f 9/2/1 8/7/1 3/8/1
