# Blender v3.4.1 OBJ File: ''
# www.blender.org
mtllib untitled.mtl
o Cylinder
v 0.282085 -0.681013 1.000000
v 0.298909 -0.721629 -1.000000
v 0.409524 -0.612896 1.000000
v 0.433948 -0.649449 -1.000000
v 0.521225 -0.521225 1.000000
v 0.552311 -0.552311 -1.000000
v 0.612896 -0.409524 1.000000
v 0.649449 -0.433948 -1.000000
v 0.681013 -0.282085 1.000000
v 0.721629 -0.298909 -1.000000
v 0.722960 -0.143806 1.000000
v 0.766078 -0.152382 -1.000000
v 0.737124 0.000000 1.000000
v 0.781086 0.000000 -1.000000
v 0.722960 0.143806 1.000000
v 0.766078 0.152382 -1.000000
v 0.681013 0.282085 1.000000
v 0.721629 0.298909 -1.000000
v 0.612896 0.409524 1.000000
v 0.649449 0.433948 -1.000000
v 0.521225 0.521225 1.000000
v 0.552311 0.552311 -1.000000
v 0.409524 0.612896 1.000000
v 0.433948 0.649449 -1.000000
v 0.282085 0.681013 1.000000
v 0.298909 0.721629 -1.000000
v 0.143806 0.722960 1.000000
v 0.152382 0.766078 -1.000000
v 0.000000 0.737124 1.000000
v 0.000000 0.781086 -1.000000
v -0.143806 0.722960 1.000000
v -0.152382 0.766078 -1.000000
v -0.282085 0.681013 1.000000
v -0.298909 0.721629 -1.000000
v -0.409524 0.612896 1.000000
v -0.433948 0.649449 -1.000000
v -0.521225 0.521225 1.000000
v -0.552311 0.552311 -1.000000
v -0.612896 0.409524 1.000000
v -0.649449 0.433948 -1.000000
v -0.681013 0.282085 1.000000
v -0.721629 0.298909 -1.000000
v -0.722960 0.143806 1.000000
v -0.766078 0.152382 -1.000000
v -0.737124 0.000000 1.000000
v -0.781086 0.000000 -1.000000
v -0.722960 -0.143806 1.000000
v -0.766078 -0.152382 -1.000000
v -0.681013 -0.282085 1.000000
v -0.721629 -0.298909 -1.000000
v -0.612896 -0.409524 1.000000
v -0.649449 -0.433948 -1.000000
v -0.521225 -0.521225 1.000000
v -0.552311 -0.552311 -1.000000
v -0.409524 -0.612896 1.000000
v -0.433948 -0.649449 -1.000000
v -0.282085 -0.681013 1.000000
v -0.298909 -0.721629 -1.000000
v -0.143806 -0.722960 1.000000
v -0.152382 -0.766078 -1.000000
v 0.000000 -0.737124 1.000000
v 0.000000 -0.781086 -1.000000
v 0.152382 -0.766078 -1.000000
v 0.143806 -0.722960 1.000000
v 0.382683 0.923880 1.000000
v 0.195090 0.980785 1.000000
v 0.000000 1.000000 1.000000
v -0.195090 0.980785 1.000000
v -0.382683 0.923880 1.000000
v -0.555570 0.831470 1.000000
v -0.707107 0.707107 1.000000
v -0.831470 0.555570 1.000000
v -0.923880 0.382683 1.000000
v -0.980785 0.195090 1.000000
v -1.000000 0.000000 1.000000
v -0.980785 -0.195090 1.000000
v -0.923880 -0.382683 1.000000
v -0.831470 -0.555570 1.000000
v -0.707107 -0.707107 1.000000
v -0.555570 -0.831470 1.000000
v -0.382683 -0.923880 1.000000
v -0.195090 -0.980785 1.000000
v 0.000000 -1.000000 1.000000
v 0.555570 0.831470 1.000000
v 0.707107 0.707107 1.000000
v 0.831470 0.555570 1.000000
v 0.923880 0.382683 1.000000
v 0.980785 0.195090 1.000000
v 1.000000 0.000000 1.000000
v 0.980785 -0.195090 1.000000
v 0.923880 -0.382683 1.000000
v 0.831470 -0.555570 1.000000
v 0.707107 -0.707107 1.000000
v 0.555570 -0.831470 1.000000
v 0.382683 -0.923880 1.000000
v 0.195090 -0.980785 1.000000
v 0.382683 0.923880 -1.000000
v 0.555570 0.831470 -1.000000
v 0.195090 0.980785 -1.000000
v 0.000000 1.000000 -1.000000
v -0.195090 0.980785 -1.000000
v -0.382683 0.923880 -1.000000
v -0.555570 0.831470 -1.000000
v -0.707107 0.707107 -1.000000
v -0.831470 0.555570 -1.000000
v -0.923880 0.382683 -1.000000
v -0.980785 0.195090 -1.000000
v -1.000000 0.000000 -1.000000
v -0.980785 -0.195090 -1.000000
v -0.923880 -0.382683 -1.000000
v -0.831470 -0.555570 -1.000000
v -0.707107 -0.707107 -1.000000
v -0.555570 -0.831470 -1.000000
v -0.382683 -0.923880 -1.000000
v -0.195090 -0.980785 -1.000000
v 0.000000 -1.000000 -1.000000
v 0.707107 0.707107 -1.000000
v 0.831470 0.555570 -1.000000
v 0.923880 0.382683 -1.000000
v 0.980785 0.195090 -1.000000
v 1.000000 0.000000 -1.000000
v 0.980785 -0.195090 -1.000000
v 0.923880 -0.382683 -1.000000
v 0.831470 -0.555570 -1.000000
v 0.707107 -0.707107 -1.000000
v 0.555570 -0.831470 -1.000000
v 0.382683 -0.923880 -1.000000
v 0.195090 -0.980785 -1.000000
vt 1.000000 1.000000
vt 0.968750 0.500000
vt 1.000000 0.500000
vt 0.968750 1.000000
vt 0.937500 0.500000
vt 0.968750 0.500000
vt 0.937500 1.000000
vt 0.906250 0.500000
vt 0.937500 0.500000
vt 0.906250 1.000000
vt 0.875000 0.500000
vt 0.906250 0.500000
vt 0.875000 1.000000
vt 0.843750 0.500000
vt 0.875000 0.500000
vt 0.843750 1.000000
vt 0.812500 0.500000
vt 0.843750 0.500000
vt 0.812500 1.000000
vt 0.781250 0.500000
vt 0.812500 0.500000
vt 0.781250 1.000000
vt 0.750000 0.500000
vt 0.781250 0.500000
vt 0.750000 1.000000
vt 0.718750 0.500000
vt 0.750000 0.500000
vt 0.718750 1.000000
vt 0.687500 0.500000
vt 0.718750 0.500000
vt 0.687500 1.000000
vt 0.656250 0.500000
vt 0.687500 0.500000
vt 0.656250 1.000000
vt 0.625000 0.500000
vt 0.656250 0.500000
vt 0.625000 1.000000
vt 0.593750 0.500000
vt 0.593750 1.000000
vt 0.562500 0.500000
vt 0.562500 1.000000
vt 0.531250 0.500000
vt 0.531250 1.000000
vt 0.500000 0.500000
vt 0.500000 1.000000
vt 0.468750 0.500000
vt 0.468750 1.000000
vt 0.437500 0.500000
vt 0.437500 1.000000
vt 0.406250 0.500000
vt 0.406250 1.000000
vt 0.375000 0.500000
vt 0.375000 1.000000
vt 0.343750 0.500000
vt 0.343750 1.000000
vt 0.312500 0.500000
vt 0.312500 1.000000
vt 0.281250 0.500000
vt 0.281250 1.000000
vt 0.250000 0.500000
vt 0.250000 1.000000
vt 0.218750 0.500000
vt 0.218750 1.000000
vt 0.187500 0.500000
vt 0.187500 1.000000
vt 0.156250 0.500000
vt 0.156250 1.000000
vt 0.125000 0.500000
vt 0.125000 1.000000
vt 0.093750 0.500000
vt 0.093750 1.000000
vt 0.062500 0.500000
vt 0.062500 1.000000
vt 0.031250 0.500000
vt 0.031250 1.000000
vt 0.000000 0.500000
vt 0.215487 0.076490
vt 0.158156 0.028269
vt 0.203178 0.014612
vt 0.250000 0.073090
vt 0.250000 0.010000
vt 0.296822 0.014612
vt 0.284513 0.076490
vt 0.341844 0.028269
vt 0.317700 0.086557
vt 0.383337 0.050447
vt 0.348286 0.102905
vt 0.419706 0.080294
vt 0.375094 0.124906
vt 0.449553 0.116663
vt 0.397095 0.151714
vt 0.471731 0.158156
vt 0.413443 0.182300
vt 0.423510 0.215487
vt 0.485388 0.203178
vt 0.426910 0.250000
vt 0.490000 0.250000
vt 0.485388 0.296822
vt 0.423510 0.284513
vt 0.471731 0.341844
vt 0.413443 0.317700
vt 0.449553 0.383337
vt 0.397095 0.348286
vt 0.419706 0.419706
vt 0.375094 0.375094
vt 0.383337 0.449553
vt 0.348286 0.397095
vt 0.341844 0.471731
vt 0.317700 0.413443
vt 0.284513 0.423510
vt 0.296822 0.485388
vt 0.250000 0.426910
vt 0.250000 0.490000
vt 0.151714 0.102905
vt 0.182300 0.086557
vt 0.124906 0.124906
vt 0.116663 0.050447
vt 0.102905 0.151714
vt 0.080294 0.080294
vt 0.086557 0.182300
vt 0.050447 0.116663
vt 0.076490 0.215487
vt 0.028269 0.158156
vt 0.073090 0.250000
vt 0.014612 0.203178
vt 0.014612 0.296822
vt 0.010000 0.250000
vt 0.076490 0.284513
vt 0.028269 0.341844
vt 0.102905 0.348286
vt 0.086557 0.317700
vt 0.124906 0.375094
vt 0.050447 0.383337
vt 0.151714 0.397095
vt 0.080294 0.419706
vt 0.182300 0.413443
vt 0.116663 0.449553
vt 0.215487 0.423510
vt 0.158156 0.471731
vt 0.203178 0.485388
vt 0.678262 0.076809
vt 0.616663 0.050447
vt 0.645852 0.094132
vt 0.713428 0.066141
vt 0.658156 0.028269
vt 0.750000 0.062539
vt 0.703178 0.014612
vt 0.786572 0.066141
vt 0.750000 0.010000
vt 0.841844 0.028269
vt 0.796822 0.014612
vt 0.821738 0.076809
vt 0.883337 0.050447
vt 0.882555 0.117445
vt 0.854148 0.094132
vt 0.905868 0.145852
vt 0.919706 0.080294
vt 0.923191 0.178262
vt 0.949553 0.116663
vt 0.933859 0.213428
vt 0.971731 0.158156
vt 0.937461 0.250000
vt 0.985388 0.203178
vt 0.933859 0.286572
vt 0.990000 0.250000
vt 0.971731 0.341844
vt 0.985388 0.296822
vt 0.923191 0.321738
vt 0.949553 0.383337
vt 0.882555 0.382555
vt 0.905868 0.354148
vt 0.854148 0.405868
vt 0.919706 0.419706
vt 0.821738 0.423191
vt 0.883337 0.449553
vt 0.786572 0.433859
vt 0.841844 0.471731
vt 0.750000 0.437461
vt 0.796822 0.485388
vt 0.580294 0.080294
vt 0.617445 0.117445
vt 0.550447 0.116663
vt 0.594132 0.145852
vt 0.576809 0.178262
vt 0.528269 0.158156
vt 0.566141 0.213428
vt 0.514612 0.203178
vt 0.510000 0.250000
vt 0.562539 0.250000
vt 0.514612 0.296822
vt 0.566141 0.286572
vt 0.528269 0.341844
vt 0.576809 0.321738
vt 0.550447 0.383337
vt 0.594132 0.354148
vt 0.580294 0.419706
vt 0.617445 0.382555
vt 0.616663 0.449553
vt 0.645852 0.405868
vt 0.678262 0.423191
vt 0.658156 0.471731
vt 0.713428 0.433859
vt 0.703178 0.485388
vt 0.750000 0.490000
vt 0.000000 0.000000
vt 0.000000 0.000000
vt 0.000000 0.000000
vt 0.000000 0.000000
vt 0.000000 0.000000
vt 0.000000 0.000000
vt 0.000000 0.000000
vt 0.000000 0.000000
vt 0.000000 0.000000
vt 0.000000 0.000000
vt 0.000000 0.000000
vt 0.000000 0.000000
vt 0.000000 0.000000
vt 0.000000 0.000000
vt 0.000000 0.000000
vt 0.000000 0.000000
vt 0.000000 0.000000
vt 0.000000 0.000000
vt 0.000000 0.000000
vt 0.000000 0.000000
vt 0.000000 0.000000
vt 0.000000 0.000000
vt 0.000000 0.000000
vt 0.000000 0.000000
vt 0.000000 0.000000
vt 0.000000 0.000000
vt 0.000000 0.000000
vt 0.000000 0.000000
vt 0.000000 0.000000
vt 0.000000 0.000000
vt 0.000000 0.000000
vt 0.000000 0.000000
vt 0.000000 0.000000
vt 0.000000 0.000000
vt 0.000000 0.000000
vt 0.000000 0.000000
vt 0.000000 0.000000
vt 0.000000 0.000000
vt 0.000000 0.000000
vt 0.000000 0.000000
vt 0.000000 0.000000
vt 0.000000 0.000000
vt 0.000000 0.000000
vt 0.000000 0.000000
vt 0.000000 0.000000
vt 0.000000 0.000000
vt 0.000000 0.000000
vt 0.000000 0.000000
vt 0.000000 0.000000
vt 0.000000 0.000000
vt 0.000000 0.000000
vt 0.000000 0.000000
vt 0.000000 0.000000
vt 0.000000 0.000000
vt 0.000000 0.000000
vt 0.000000 0.000000
vt 0.000000 0.000000
vt 0.000000 0.000000
vt 0.000000 0.000000
vt 0.000000 0.000000
vt 0.000000 0.000000
vt 0.000000 0.000000
vt 0.000000 0.000000
vt 0.000000 0.000000
vt 0.968750 1.000000
vt 0.937500 1.000000
vt 0.906250 1.000000
vt 0.875000 1.000000
vt 0.843750 1.000000
vt 0.812500 1.000000
vt 0.781250 1.000000
vt 0.750000 1.000000
vt 0.718750 1.000000
vt 0.687500 1.000000
vt 0.656250 1.000000
vt 0.000000 1.000000
vn -0.8819 0.4714 0.0000
vn -0.9569 0.2903 0.0000
vn -0.9952 0.0980 0.0000
vn -0.9952 -0.0980 0.0000
vn -0.9569 -0.2903 0.0000
vn -0.8819 -0.4714 0.0000
vn -0.7730 -0.6344 0.0000
vn -0.6344 -0.7730 0.0000
vn -0.4714 -0.8819 0.0000
vn -0.2903 -0.9569 0.0000
vn -0.0980 -0.9952 0.0000
vn -0.7730 0.6344 0.0000
vn -0.6344 0.7730 0.0000
vn -0.4714 0.8819 0.0000
vn -0.2903 0.9569 0.0000
vn -0.0980 0.9952 0.0000
vn 0.0980 0.9952 0.0000
vn 0.2903 0.9569 0.0000
vn 0.4714 0.8819 0.0000
vn 0.6344 0.7730 0.0000
vn 0.7730 0.6344 0.0000
vn 0.8819 0.4714 0.0000
vn 0.9569 0.2903 0.0000
vn 0.9952 0.0980 0.0000
vn 0.9952 -0.0980 0.0000
vn 0.9569 -0.2903 0.0000
vn 0.8819 -0.4714 0.0000
vn 0.7730 -0.6344 0.0000
vn 0.6344 -0.7730 0.0000
vn 0.4714 -0.8819 0.0000
vn 0.2903 -0.9569 0.0000
vn 0.0980 -0.9952 0.0000
vn 0.0000 0.0000 1.0000
vn 0.0000 0.0000 -1.0000
vn -0.7728 -0.6342 -0.0219
vn -0.8817 -0.4713 -0.0219
vn -0.9567 -0.2902 -0.0219
vn -0.9949 -0.0980 -0.0219
vn -0.9949 0.0980 -0.0219
vn -0.9567 0.2902 -0.0219
vn -0.8817 0.4713 -0.0219
vn -0.7728 0.6342 -0.0219
vn -0.6342 0.7728 -0.0219
vn -0.4713 0.8817 -0.0219
vn -0.2902 0.9567 -0.0219
vn -0.0980 0.9949 -0.0219
vn 0.0980 0.9949 -0.0219
vn 0.2902 0.9567 -0.0219
vn 0.4713 0.8817 -0.0219
vn 0.6342 0.7728 -0.0219
vn 0.7728 0.6342 -0.0219
vn 0.8817 0.4713 -0.0219
vn 0.9567 0.2902 -0.0219
vn 0.9949 0.0980 -0.0219
vn 0.9949 -0.0980 -0.0219
vn 0.9567 -0.2902 -0.0219
vn 0.8817 -0.4713 -0.0219
vn 0.7728 -0.6342 -0.0219
vn 0.6342 -0.7728 -0.0219
vn 0.4713 -0.8817 -0.0219
vn 0.2902 -0.9567 -0.0219
vn 0.0980 -0.9949 -0.0219
vn -0.0980 -0.9949 -0.0219
vn -0.2902 -0.9567 -0.0219
vn -0.4713 -0.8817 -0.0219
vn -0.6342 -0.7728 -0.0219
usemtl None
s off
f 73/1/1 105/2/1 106/3/1
f 74/4/2 106/5/2 107/6/2
f 75/7/3 107/8/3 108/9/3
f 76/10/4 108/11/4 109/12/4
f 77/13/5 109/14/5 110/15/5
f 78/16/6 110/17/6 111/18/6
f 79/19/7 111/20/7 112/21/7
f 80/22/8 112/23/8 113/24/8
f 81/25/9 113/26/9 114/27/9
f 82/28/10 114/29/10 115/30/10
f 83/31/11 115/32/11 116/33/11
f 72/34/12 104/35/12 105/36/12
f 71/37/13 103/38/13 104/35/13
f 70/39/14 102/40/14 103/38/14
f 69/41/15 101/42/15 102/40/15
f 68/43/16 100/44/16 101/42/16
f 67/45/17 99/46/17 100/44/17
f 66/47/18 97/48/18 99/46/18
f 65/49/19 98/50/19 97/48/19
f 84/51/20 117/52/20 98/50/20
f 85/53/21 118/54/21 117/52/21
f 86/55/22 119/56/22 118/54/22
f 87/57/23 120/58/23 119/56/23
f 88/59/24 121/60/24 120/58/24
f 89/61/25 122/62/25 121/60/25
f 90/63/26 123/64/26 122/62/26
f 91/65/27 124/66/27 123/64/27
f 92/67/28 125/68/28 124/66/28
f 93/69/29 126/70/29 125/68/29
f 94/71/30 127/72/30 126/70/30
f 95/73/31 128/74/31 127/72/31
f 96/75/32 116/76/32 128/74/32
f 27/77/33 65/78/33 66/79/33
f 29/80/33 66/79/33 67/81/33
f 29/80/33 68/82/33 31/83/33
f 31/83/33 69/84/33 33/85/33
f 33/85/33 70/86/33 35/87/33
f 35/87/33 71/88/33 37/89/33
f 37/89/33 72/90/33 39/91/33
f 39/91/33 73/92/33 41/93/33
f 43/94/33 73/92/33 74/95/33
f 45/96/33 74/95/33 75/97/33
f 45/96/33 76/98/33 47/99/33
f 47/99/33 77/100/33 49/101/33
f 49/101/33 78/102/33 51/103/33
f 51/103/33 79/104/33 53/105/33
f 53/105/33 80/106/33 55/107/33
f 55/107/33 81/108/33 57/109/33
f 59/110/33 81/108/33 82/111/33
f 61/112/33 82/111/33 83/113/33
f 23/114/33 65/78/33 25/115/33
f 21/116/33 84/117/33 23/114/33
f 19/118/33 85/119/33 21/116/33
f 17/120/33 86/121/33 19/118/33
f 15/122/33 87/123/33 17/120/33
f 13/124/33 88/125/33 15/122/33
f 13/124/33 90/126/33 89/127/33
f 11/128/33 91/129/33 90/126/33
f 7/130/33 91/129/33 9/131/33
f 5/132/33 92/133/33 7/130/33
f 3/134/33 93/135/33 5/132/33
f 1/136/33 94/137/33 3/134/33
f 64/138/33 95/139/33 1/136/33
f 61/112/33 96/140/33 64/138/33
f 26/141/34 98/142/34 24/143/34
f 28/144/34 97/145/34 26/141/34
f 30/146/34 99/147/34 28/144/34
f 32/148/34 100/149/34 30/146/34
f 32/148/34 102/150/34 101/151/34
f 34/152/34 103/153/34 102/150/34
f 38/154/34 103/153/34 36/155/34
f 40/156/34 104/157/34 38/154/34
f 42/158/34 105/159/34 40/156/34
f 44/160/34 106/161/34 42/158/34
f 46/162/34 107/163/34 44/160/34
f 48/164/34 108/165/34 46/162/34
f 48/164/34 110/166/34 109/167/34
f 50/168/34 111/169/34 110/166/34
f 54/170/34 111/169/34 52/171/34
f 56/172/34 112/173/34 54/170/34
f 58/174/34 113/175/34 56/172/34
f 60/176/34 114/177/34 58/174/34
f 62/178/34 115/179/34 60/176/34
f 24/143/34 117/180/34 22/181/34
f 22/181/34 118/182/34 20/183/34
f 18/184/34 118/182/34 119/185/34
f 16/186/34 119/185/34 120/187/34
f 16/186/34 121/188/34 14/189/34
f 14/189/34 122/190/34 12/191/34
f 12/191/34 123/192/34 10/193/34
f 10/193/34 124/194/34 8/195/34
f 8/195/34 125/196/34 6/197/34
f 6/197/34 126/198/34 4/199/34
f 2/200/34 126/198/34 127/201/34
f 63/202/34 127/201/34 128/203/34
f 63/202/34 116/204/34 62/178/34
f 22/205/35 19/206/35 21/207/35
f 20/208/36 17/209/36 19/206/36
f 18/210/37 15/211/37 17/209/37
f 16/212/38 13/213/38 15/211/38
f 14/214/39 11/215/39 13/213/39
f 12/216/40 9/217/40 11/215/40
f 10/218/41 7/219/41 9/217/41
f 8/220/42 5/221/42 7/219/42
f 6/222/43 3/223/43 5/221/43
f 4/224/44 1/225/44 3/223/44
f 2/226/45 64/227/45 1/225/45
f 63/228/46 61/229/46 64/227/46
f 62/230/47 59/231/47 61/229/47
f 60/232/48 57/233/48 59/231/48
f 58/234/49 55/235/49 57/233/49
f 56/236/50 53/237/50 55/235/50
f 54/238/51 51/239/51 53/237/51
f 52/240/52 49/241/52 51/239/52
f 50/242/53 47/243/53 49/241/53
f 48/244/54 45/245/54 47/243/54
f 46/246/55 43/247/55 45/245/55
f 44/248/56 41/249/56 43/247/56
f 42/250/57 39/251/57 41/249/57
f 40/252/58 37/253/58 39/251/58
f 38/254/59 35/255/59 37/253/59
f 36/256/60 33/257/60 35/255/60
f 34/258/61 31/259/61 33/257/61
f 32/260/62 29/261/62 31/259/62
f 30/262/63 27/263/63 29/261/63
f 28/264/64 25/265/64 27/263/64
f 26/266/65 23/267/65 25/265/65
f 24/268/66 21/207/66 23/267/66
f 73/1/1 72/269/1 105/2/1
f 74/4/2 73/270/2 106/5/2
f 75/7/3 74/271/3 107/8/3
f 76/10/4 75/272/4 108/11/4
f 77/13/5 76/273/5 109/14/5
f 78/16/6 77/274/6 110/17/6
f 79/19/7 78/275/7 111/20/7
f 80/22/8 79/276/8 112/23/8
f 81/25/9 80/277/9 113/26/9
f 82/28/10 81/278/10 114/29/10
f 83/31/11 82/279/11 115/32/11
f 72/34/12 71/37/12 104/35/12
f 71/37/13 70/39/13 103/38/13
f 70/39/14 69/41/14 102/40/14
f 69/41/15 68/43/15 101/42/15
f 68/43/16 67/45/16 100/44/16
f 67/45/17 66/47/17 99/46/17
f 66/47/18 65/49/18 97/48/18
f 65/49/19 84/51/19 98/50/19
f 84/51/20 85/53/20 117/52/20
f 85/53/21 86/55/21 118/54/21
f 86/55/22 87/57/22 119/56/22
f 87/57/23 88/59/23 120/58/23
f 88/59/24 89/61/24 121/60/24
f 89/61/25 90/63/25 122/62/25
f 90/63/26 91/65/26 123/64/26
f 91/65/27 92/67/27 124/66/27
f 92/67/28 93/69/28 125/68/28
f 93/69/29 94/71/29 126/70/29
f 94/71/30 95/73/30 127/72/30
f 95/73/31 96/75/31 128/74/31
f 96/75/32 83/280/32 116/76/32
f 27/77/33 25/115/33 65/78/33
f 29/80/33 27/77/33 66/79/33
f 29/80/33 67/81/33 68/82/33
f 31/83/33 68/82/33 69/84/33
f 33/85/33 69/84/33 70/86/33
f 35/87/33 70/86/33 71/88/33
f 37/89/33 71/88/33 72/90/33
f 39/91/33 72/90/33 73/92/33
f 43/94/33 41/93/33 73/92/33
f 45/96/33 43/94/33 74/95/33
f 45/96/33 75/97/33 76/98/33
f 47/99/33 76/98/33 77/100/33
f 49/101/33 77/100/33 78/102/33
f 51/103/33 78/102/33 79/104/33
f 53/105/33 79/104/33 80/106/33
f 55/107/33 80/106/33 81/108/33
f 59/110/33 57/109/33 81/108/33
f 61/112/33 59/110/33 82/111/33
f 23/114/33 84/117/33 65/78/33
f 21/116/33 85/119/33 84/117/33
f 19/118/33 86/121/33 85/119/33
f 17/120/33 87/123/33 86/121/33
f 15/122/33 88/125/33 87/123/33
f 13/124/33 89/127/33 88/125/33
f 13/124/33 11/128/33 90/126/33
f 11/128/33 9/131/33 91/129/33
f 7/130/33 92/133/33 91/129/33
f 5/132/33 93/135/33 92/133/33
f 3/134/33 94/137/33 93/135/33
f 1/136/33 95/139/33 94/137/33
f 64/138/33 96/140/33 95/139/33
f 61/112/33 83/113/33 96/140/33
f 26/141/34 97/145/34 98/142/34
f 28/144/34 99/147/34 97/145/34
f 30/146/34 100/149/34 99/147/34
f 32/148/34 101/151/34 100/149/34
f 32/148/34 34/152/34 102/150/34
f 34/152/34 36/155/34 103/153/34
f 38/154/34 104/157/34 103/153/34
f 40/156/34 105/159/34 104/157/34
f 42/158/34 106/161/34 105/159/34
f 44/160/34 107/163/34 106/161/34
f 46/162/34 108/165/34 107/163/34
f 48/164/34 109/167/34 108/165/34
f 48/164/34 50/168/34 110/166/34
f 50/168/34 52/171/34 111/169/34
f 54/170/34 112/173/34 111/169/34
f 56/172/34 113/175/34 112/173/34
f 58/174/34 114/177/34 113/175/34
f 60/176/34 115/179/34 114/177/34
f 62/178/34 116/204/34 115/179/34
f 24/143/34 98/142/34 117/180/34
f 22/181/34 117/180/34 118/182/34
f 18/184/34 20/183/34 118/182/34
f 16/186/34 18/184/34 119/185/34
f 16/186/34 120/187/34 121/188/34
f 14/189/34 121/188/34 122/190/34
f 12/191/34 122/190/34 123/192/34
f 10/193/34 123/192/34 124/194/34
f 8/195/34 124/194/34 125/196/34
f 6/197/34 125/196/34 126/198/34
f 2/200/34 4/199/34 126/198/34
f 63/202/34 2/200/34 127/201/34
f 63/202/34 128/203/34 116/204/34
f 22/205/35 20/208/35 19/206/35
f 20/208/36 18/210/36 17/209/36
f 18/210/37 16/212/37 15/211/37
f 16/212/38 14/214/38 13/213/38
f 14/214/39 12/216/39 11/215/39
f 12/216/40 10/218/40 9/217/40
f 10/218/41 8/220/41 7/219/41
f 8/220/42 6/222/42 5/221/42
f 6/222/43 4/224/43 3/223/43
f 4/224/44 2/226/44 1/225/44
f 2/226/45 63/228/45 64/227/45
f 63/228/46 62/230/46 61/229/46
f 62/230/47 60/232/47 59/231/47
f 60/232/48 58/234/48 57/233/48
f 58/234/49 56/236/49 55/235/49
f 56/236/50 54/238/50 53/237/50
f 54/238/51 52/240/51 51/239/51
f 52/240/52 50/242/52 49/241/52
f 50/242/53 48/244/53 47/243/53
f 48/244/54 46/246/54 45/245/54
f 46/246/55 44/248/55 43/247/55
f 44/248/56 42/250/56 41/249/56
f 42/250/57 40/252/57 39/251/57
f 40/252/58 38/254/58 37/253/58
f 38/254/59 36/256/59 35/255/59
f 36/256/60 34/258/60 33/257/60
f 34/258/61 32/260/61 31/259/61
f 32/260/62 30/262/62 29/261/62
f 30/262/63 28/264/63 27/263/63
f 28/264/64 26/266/64 25/265/64
f 26/266/65 24/268/65 23/267/65
f 24/268/66 22/205/66 21/207/66
